<?xml version="1.0" encoding="utf-8"?>
<!-- Generator: Adobe Illustrator 16.0.0, SVG Export Plug-In . SVG Version: 6.00 Build 0)  -->
<!DOCTYPE svg PUBLIC "-//W3C//DTD SVG 1.1//EN" "http://www.w3.org/Graphics/SVG/1.1/DTD/svg11.dtd">
<svg version="1.1" id="Layer_1" xmlns="http://www.w3.org/2000/svg" xmlns:xlink="http://www.w3.org/1999/xlink" x="0px" y="0px"
	 width="20px" height="19.508px" viewBox="1 0.746 20 19.508" enable-background="new 1 0.746 20 19.508" xml:space="preserve">
<path fill="#191717" d="M11,0.746c-5.524,0-10,4.481-10,10c0,4.42,2.867,8.164,6.838,9.489c0.498,0.093,0.681-0.214,0.681-0.484
	c0-0.238-0.006-0.865-0.012-1.7c-2.781,0.602-3.37-1.339-3.37-1.339c-0.454-1.152-1.111-1.461-1.111-1.461
	c-0.909-0.619,0.068-0.606,0.068-0.606c1,0.073,1.534,1.031,1.534,1.031c0.89,1.528,2.339,1.086,2.91,0.828
	c0.092-0.644,0.35-1.087,0.632-1.338c-2.223-0.252-4.556-1.111-4.556-4.942c0-1.092,0.387-1.982,1.032-2.682
	C5.543,7.29,5.199,6.271,5.745,4.896c0,0,0.842-0.271,2.751,1.025C9.293,5.7,10.146,5.589,11,5.583
	c0.846,0.006,1.707,0.116,2.505,0.337c1.909-1.295,2.75-1.025,2.75-1.025c0.546,1.375,0.202,2.394,0.099,2.646
	c0.639,0.7,1.024,1.59,1.024,2.682c0,3.842-2.339,4.683-4.567,4.935c0.355,0.308,0.683,0.921,0.683,1.854
	c0,1.338-0.014,2.412-0.014,2.743c0,0.271,0.179,0.577,0.688,0.479C18.14,18.91,21,15.166,21,10.752C21,5.228,16.524,0.746,11,0.746
	z"/>
</svg>
