<svg  width="20" height="20" viewBox="0 0 20 20" xmlns="http://www.w3.org/2000/svg" id="github">
  <path d="M10,0C4.476,0,0,4.594,0,10.252c0,4.533,2.867,8.371,6.838,9.728c0.498,0.098,0.681-0.219,0.681-0.494
    c0-0.244-0.006-0.887-0.012-1.744c-2.781,0.617-3.37-1.371-3.37-1.371c-0.454-1.182-1.111-1.499-1.111-1.499
    c-0.909-0.635,0.068-0.622,0.068-0.622c1,0.076,1.534,1.057,1.534,1.057c0.89,1.568,2.339,1.113,2.91,0.85
    c0.092-0.66,0.35-1.113,0.632-1.371c-2.223-0.259-4.556-1.141-4.556-5.067c0-1.12,0.387-2.032,1.032-2.75
    C4.543,6.709,4.199,5.664,4.745,4.254c0,0,0.842-0.277,2.751,1.051C8.293,5.08,9.146,4.965,10,4.959
    c0.846,0.006,1.707,0.12,2.505,0.346c1.909-1.328,2.75-1.051,2.75-1.051c0.546,1.41,0.202,2.455,0.099,2.713
    c0.64,0.718,1.024,1.63,1.024,2.75c0,3.938-2.339,4.802-4.567,5.06c0.355,0.316,0.684,0.945,0.684,1.901
    c0,1.371-0.014,2.471-0.014,2.813c0,0.275,0.179,0.592,0.688,0.49C17.141,18.623,20,14.785,20,10.259C20,4.595,15.523,0,10,0z"/>
</svg>
